<?xml version="1.0" standalone="no"?>
<!DOCTYPE svg PUBLIC "-//W3C//DTD SVG 20010904//EN"
 "http://www.w3.org/TR/2001/REC-SVG-20010904/DTD/svg10.dtd">
<svg version="1.0" xmlns="http://www.w3.org/2000/svg"
 width="1280.000000pt" height="1065.000000pt" viewBox="0 0 1280.000000 1065.000000"
 preserveAspectRatio="xMidYMid meet">
<metadata>
Created by potrace 1.15, written by Peter Selinger 2001-2017
</metadata>
<g transform="translate(0.000000,1065.000000) scale(0.100000,-0.100000)"
fill="#000000" stroke="none">
<path d="M4975 9163 c-11 -2 -29 -8 -40 -13 -17 -7 -70 -16 -134 -22 -7 -1
-20 -16 -27 -34 -9 -21 -23 -36 -39 -40 -14 -3 -25 -9 -25 -13 0 -4 -12 -14
-26 -22 -27 -14 -63 -43 -116 -92 -23 -21 -29 -33 -24 -52 3 -13 2 -26 -3 -30
-14 -8 -10 -64 6 -94 7 -14 13 -38 13 -52 0 -15 7 -32 15 -39 9 -7 13 -20 10
-30 -3 -9 3 -24 14 -34 16 -15 29 -17 73 -10 29 4 71 8 93 9 22 1 57 9 78 18
35 15 38 20 35 49 -3 32 -2 33 40 36 24 2 50 -2 58 -9 7 -6 21 -9 29 -5 27 10
16 35 -22 52 -37 15 -37 16 -15 25 18 7 22 14 17 30 -6 19 -4 20 22 15 39 -9
73 15 54 38 -10 12 -31 16 -77 16 -35 0 -64 3 -64 8 0 14 54 32 97 32 35 0 46
5 64 29 12 17 34 35 50 41 15 7 35 23 44 37 15 22 21 24 53 18 21 -4 42 -10
47 -15 6 -4 36 -10 68 -13 47 -5 69 -14 122 -51 67 -48 83 -54 103 -34 18 18
48 -15 61 -67 7 -28 20 -51 35 -60 13 -9 26 -25 29 -35 7 -28 0 -25 -30 10
-13 17 -32 30 -41 30 -23 -1 -62 -35 -62 -54 0 -26 -15 -19 -49 24 -22 27 -40
40 -57 40 -21 0 -23 -3 -14 -19 13 -26 6 -42 -33 -68 -28 -20 -38 -21 -70 -12
-44 12 -57 6 -57 -25 0 -19 -4 -22 -24 -19 -26 5 -106 -25 -106 -40 0 -4 -12
-24 -26 -43 -19 -25 -32 -33 -45 -29 -16 5 -19 1 -19 -29 0 -44 -9 -45 -35 -6
-28 42 -39 37 -32 -15 6 -42 -3 -59 -18 -35 -3 6 -21 10 -39 10 -25 0 -35 -6
-44 -25 -13 -28 -26 -30 -62 -10 -14 8 -33 14 -43 15 -21 0 -77 39 -77 53 0 6
9 2 20 -8 18 -16 50 -15 50 2 0 33 -224 64 -309 43 -62 -15 -101 -31 -101 -41
0 -5 -6 -9 -14 -9 -13 0 -60 -49 -81 -84 -7 -12 -28 -19 -72 -23 -60 -5 -63
-4 -63 17 0 21 -3 22 -41 16 -40 -6 -50 -12 -93 -52 -13 -11 -27 -19 -33 -17
-5 2 -15 -8 -23 -22 -7 -13 -22 -27 -32 -31 -11 -3 -17 -11 -15 -17 2 -7 -2
-32 -10 -57 -19 -57 -24 -141 -11 -157 7 -9 7 -22 -2 -43 -8 -20 -9 -34 -3
-43 5 -6 11 -37 12 -67 2 -59 36 -150 57 -150 15 0 25 25 15 36 -16 18 -29 95
-21 122 5 16 9 20 9 10 2 -31 43 -141 68 -180 13 -21 32 -44 43 -50 11 -7 20
-18 20 -25 0 -7 9 -17 20 -23 11 -6 20 -17 20 -25 0 -17 -26 -20 -35 -5 -11
17 -37 11 -42 -10 -7 -27 -27 -25 -42 3 -7 12 -29 34 -51 50 -47 33 -73 27
-115 -30 -16 -21 -35 -43 -43 -48 -7 -6 -14 -21 -15 -34 -1 -12 -9 -27 -19
-32 -21 -12 -23 -32 -4 -48 14 -12 11 -57 -6 -77 -4 -6 -6 -18 -3 -25 3 -8 -4
-32 -15 -54 -12 -22 -25 -73 -30 -114 -5 -45 -14 -80 -24 -90 -16 -15 -16 -13
-10 25 4 27 2 44 -5 49 -14 8 -43 -13 -36 -25 3 -5 1 -11 -4 -14 -5 -4 -7 -22
-4 -41 4 -24 1 -39 -11 -50 -9 -9 -13 -21 -10 -27 4 -6 2 -13 -3 -17 -21 -14
-42 -119 -42 -210 0 -67 -5 -100 -16 -117 -18 -28 -21 -169 -4 -180 6 -3 9
-15 6 -25 -3 -10 -1 -22 4 -25 5 -3 9 -16 9 -30 0 -14 12 -50 26 -81 22 -49
24 -65 19 -121 -3 -36 -12 -84 -20 -106 -8 -27 -13 -104 -15 -231 0 -104 -1
-199 -2 -210 0 -26 30 -145 41 -159 4 -6 13 -29 19 -51 24 -89 109 -276 141
-308 6 -6 11 -37 11 -68 0 -47 -3 -59 -19 -64 -10 -3 -36 -24 -57 -47 l-39
-42 -9 48 c-6 34 -5 55 2 67 7 11 8 20 2 24 -14 8 -50 -17 -50 -35 0 -9 -5
-21 -11 -27 -11 -11 -21 -55 -19 -78 4 -41 10 -155 10 -178 0 -23 18 -72 49
-127 26 -48 31 -62 25 -71 -3 -5 0 -17 7 -26 14 -16 37 -71 46 -111 3 -12 9
-22 14 -22 5 0 9 -5 9 -11 0 -5 9 -31 21 -57 66 -147 79 -195 79 -292 0 -80 0
-81 23 -74 12 3 28 11 35 16 19 16 15 -23 -5 -52 -24 -36 -46 -51 -54 -38 -5
7 -17 3 -35 -11 -27 -21 -27 -21 -41 -1 -10 14 -25 20 -54 20 -21 0 -49 5 -62
12 -12 6 -29 14 -37 18 -25 12 -54 70 -42 82 8 8 22 2 50 -21 65 -51 85 -35
32 26 -49 55 -33 108 39 132 54 17 61 15 61 -24 0 -19 5 -35 10 -35 6 0 10 1
10 3 0 1 4 17 9 35 9 29 7 36 -19 59 -46 41 -75 52 -122 46 -53 -7 -116 -51
-143 -100 -11 -19 -25 -35 -30 -35 -6 0 -15 -4 -22 -10 -7 -6 -29 -7 -53 -3
-26 4 -40 3 -40 -4 0 -6 -9 -11 -20 -11 -15 0 -20 7 -20 25 0 30 -5 31 -48 5
-18 -11 -47 -22 -63 -24 -39 -5 -91 -53 -83 -78 4 -13 0 -18 -14 -18 -12 0
-24 -11 -32 -30 -8 -18 -20 -30 -31 -30 -11 0 -19 -6 -19 -13 0 -23 -25 -67
-37 -67 -7 0 -13 -1 -14 -2 0 -2 -3 -24 -5 -50 -5 -45 -4 -47 23 -50 21 -2 29
-9 31 -27 5 -29 -15 -52 -27 -32 -17 27 -30 1 -24 -49 6 -53 0 -60 -37 -40
-26 14 -32 -1 -14 -34 7 -16 14 -51 14 -80 1 -103 19 -189 46 -217 21 -21 25
-33 20 -56 -5 -22 -2 -34 13 -47 11 -10 25 -41 32 -69 7 -28 24 -74 38 -102
14 -27 24 -56 23 -63 -2 -7 5 -25 14 -41 15 -25 15 -32 5 -45 -8 -9 -19 -16
-25 -16 -12 -1 -56 -35 -56 -44 0 -3 -18 -22 -40 -42 -26 -24 -40 -45 -40 -61
0 -18 -4 -24 -15 -19 -11 4 -15 -2 -16 -22 -1 -15 -1 -30 0 -34 0 -5 -6 -8
-14 -8 -9 0 -15 -9 -15 -24 0 -14 -4 -27 -8 -30 -4 -2 -9 -32 -10 -65 -2 -57
-1 -62 23 -73 28 -13 55 -59 55 -95 0 -14 8 -38 17 -54 9 -15 14 -31 11 -34
-11 -11 -37 7 -51 37 -8 17 -17 25 -21 19 -4 -5 5 -28 19 -50 14 -23 25 -47
25 -54 0 -19 -21 -37 -42 -37 -10 0 -18 -5 -18 -12 0 -6 -15 -25 -33 -42 -45
-42 -77 -90 -77 -115 0 -12 -4 -21 -10 -21 -5 0 -10 -11 -10 -25 0 -14 -7 -36
-15 -48 -17 -27 -15 -209 3 -242 6 -11 13 -31 16 -45 10 -47 78 -124 119 -135
21 -6 41 -16 45 -22 4 -7 45 -24 90 -38 45 -15 82 -31 82 -35 0 -5 -11 -21
-24 -37 -12 -15 -24 -37 -25 -48 -5 -53 0 -140 9 -149 6 -6 10 -20 10 -32 0
-12 7 -25 16 -28 8 -3 13 -10 10 -14 -8 -13 103 -122 171 -169 57 -39 99 -53
208 -70 52 -8 57 -11 46 -31 -6 -12 -32 -23 -75 -32 -36 -7 -66 -17 -66 -22 0
-4 -13 -8 -29 -8 -17 0 -33 -4 -36 -10 -3 -5 -21 -10 -40 -10 -42 0 -78 -13
-102 -38 -10 -11 -35 -22 -57 -25 -21 -3 -46 -13 -56 -22 -9 -8 -25 -15 -34
-15 -12 0 -16 -5 -12 -16 3 -8 2 -12 -4 -9 -5 3 -19 -6 -32 -20 -14 -16 -28
-23 -40 -19 -10 3 -18 1 -18 -5 0 -6 -6 -11 -14 -11 -8 0 -24 -11 -37 -24 -13
-13 -29 -22 -37 -19 -7 3 -22 -4 -32 -15 -20 -22 -13 -36 13 -26 8 3 18 1 21
-5 7 -11 108 -3 116 9 16 23 110 84 156 102 30 11 54 25 54 29 0 5 9 9 19 9
11 0 22 4 25 8 3 5 31 14 63 21 32 7 69 20 83 29 14 9 32 15 42 14 9 -2 19 1
22 7 4 5 27 13 51 17 25 3 48 10 51 15 3 5 16 9 28 9 13 0 29 6 35 14 6 7 40
16 79 19 37 3 81 13 97 21 17 9 40 16 53 16 12 0 39 7 59 15 19 8 49 15 65 15
17 0 42 7 56 15 15 8 48 23 74 35 26 11 50 24 53 30 3 5 17 10 31 10 31 0 69
19 148 75 34 23 79 54 101 69 47 32 81 67 77 79 -1 5 2 6 7 3 11 -7 122 75
150 110 10 13 25 24 32 24 8 0 43 27 79 60 36 33 68 60 71 60 4 0 17 16 30 34
13 19 39 44 59 55 19 11 62 45 95 75 33 31 64 56 69 56 9 0 19 12 71 80 17 21
35 39 42 40 7 0 17 9 23 20 14 26 40 26 47 0 3 -11 9 -20 14 -20 5 0 9 -6 9
-12 1 -7 9 -31 20 -53 11 -22 19 -46 20 -53 0 -7 4 -20 9 -30 20 -37 61 -179
61 -209 0 -18 4 -34 9 -37 4 -3 11 -33 15 -66 5 -46 12 -62 28 -71 28 -15 58
12 42 39 -7 10 -15 47 -19 82 -4 36 -11 70 -15 75 -4 6 -11 31 -14 57 -5 32
-12 48 -22 48 -10 0 -14 12 -14 40 0 22 -4 48 -9 58 -22 40 -51 109 -51 120 0
7 -9 21 -21 33 -12 12 -22 26 -23 33 -3 14 -42 102 -61 138 -8 14 -15 32 -15
38 0 7 -22 49 -50 95 -27 46 -50 93 -50 105 0 12 -11 40 -24 63 -13 23 -29 61
-36 85 -6 23 -15 42 -20 42 -4 0 -12 15 -15 32 -4 18 -19 57 -32 87 -14 29
-26 72 -27 95 0 22 -6 47 -13 54 -16 16 -17 29 -3 37 6 4 4 16 -6 31 -19 29
-2 34 27 8 25 -23 46 -12 52 28 3 25 -1 39 -16 56 -18 19 -19 26 -9 43 16 25
7 56 -16 64 -14 4 -17 13 -14 40 6 51 37 47 114 -18 57 -47 179 -117 206 -117
6 0 23 -6 39 -14 24 -13 53 -24 138 -56 98 -36 289 -71 465 -85 25 -2 63 -7
85 -12 57 -12 459 -4 481 9 18 11 59 11 87 0 35 -15 47 -15 47 -2 0 6 7 10 15
10 8 0 15 -7 15 -15 0 -18 21 -20 39 -2 6 6 15 12 19 13 4 0 23 4 43 8 36 8
79 -5 79 -23 0 -4 -29 -23 -65 -41 -70 -36 -80 -44 -70 -60 7 -11 52 10 90 41
27 22 72 32 81 18 4 -7 -1 -16 -10 -21 -9 -5 -16 -16 -16 -25 0 -9 -8 -25 -17
-35 -22 -24 -3 -49 22 -28 8 7 19 10 23 6 4 -4 -6 -18 -22 -31 -16 -13 -25
-28 -22 -34 4 -6 11 -9 16 -6 14 8 21 -30 11 -57 -5 -15 -5 -31 0 -41 11 -18
39 -24 39 -8 0 15 41 78 79 122 24 28 41 39 62 39 39 0 172 123 164 151 -8 25
11 24 25 0 13 -25 14 -73 1 -52 -8 12 -12 10 -22 -11 -9 -21 -9 -33 2 -56 11
-26 16 -29 36 -21 15 5 23 5 23 -2 0 -6 16 -43 35 -82 29 -61 56 -94 173 -209
76 -76 142 -138 146 -138 8 0 72 -50 117 -93 16 -15 34 -27 39 -27 5 0 13 -6
17 -13 9 -14 29 -26 98 -62 28 -14 77 -45 110 -69 33 -25 64 -45 69 -45 4 -1
28 -14 53 -31 24 -16 46 -30 48 -30 2 0 33 -20 69 -45 37 -25 69 -45 73 -45 3
0 24 -8 47 -19 85 -38 117 -51 131 -51 8 0 15 -6 15 -12 1 -7 9 -2 20 10 24
29 17 45 -36 92 -27 24 -34 34 -24 40 7 5 20 6 28 3 9 -4 13 0 11 12 -2 10
-11 20 -19 21 -134 29 -161 44 -277 164 -56 58 -65 85 -33 95 11 3 28 17 38
29 23 30 79 39 93 15 6 -13 4 -22 -7 -34 -16 -15 -12 -51 4 -41 15 9 44 -19
47 -45 1 -13 3 -27 4 -31 0 -4 40 -9 89 -10 86 -3 87 -3 90 -30 3 -21 9 -27
30 -30 19 -2 27 -9 27 -23 0 -15 8 -21 32 -23 21 -2 34 -10 38 -23 4 -10 13
-19 21 -19 8 0 32 -11 54 -25 22 -14 44 -25 50 -25 23 0 7 -20 -40 -49 -28
-17 -61 -31 -75 -31 -18 0 -25 -5 -25 -19 0 -27 14 -33 71 -33 27 0 46 -4 43
-9 -3 -5 -25 -9 -50 -9 -53 0 -56 -12 -12 -57 23 -23 27 -33 16 -33 -9 0 -18
7 -22 15 -3 8 -10 15 -16 15 -14 0 -13 -33 2 -48 6 -6 9 -14 5 -18 -7 -7 -87
70 -87 84 0 12 -58 34 -64 24 -7 -12 11 -46 42 -79 16 -17 32 -38 35 -47 4 -9
17 -20 31 -26 13 -5 27 -18 31 -29 11 -35 92 -72 170 -78 39 -3 77 -9 85 -13
8 -4 35 -11 60 -15 25 -4 50 -11 55 -15 11 -8 120 -5 183 5 29 5 42 4 42 -4 0
-15 72 -14 104 0 19 9 29 9 39 1 8 -7 17 -8 23 -2 11 11 106 16 123 6 7 -4 22
-9 34 -11 36 -4 79 -17 106 -31 14 -8 35 -14 47 -14 11 0 29 -9 39 -20 10 -11
26 -20 37 -20 10 0 18 -4 18 -9 0 -8 26 -20 55 -25 21 -4 65 -30 65 -38 0 -4
6 -8 13 -8 17 0 177 -159 177 -176 0 -8 6 -14 14 -14 13 0 36 -24 124 -129 20
-25 58 -67 83 -94 41 -45 48 -48 68 -38 12 7 26 24 32 38 8 22 5 30 -25 59
-19 19 -40 34 -46 34 -5 0 -10 7 -10 15 0 13 -11 19 -31 17 -4 -1 -5 7 -2 17
2 9 -3 23 -11 30 -9 8 -16 19 -16 26 0 6 -21 33 -46 58 -25 26 -43 51 -39 57
4 6 2 9 -3 8 -5 -2 -33 22 -64 52 -94 95 -143 129 -219 151 -21 7 -39 15 -39
19 0 4 -14 10 -30 14 -53 10 -53 61 0 113 29 28 31 34 34 126 2 54 9 103 15
111 6 8 12 45 12 82 1 65 12 100 45 144 7 8 15 35 19 60 4 24 13 52 19 62 8
15 8 21 -3 28 -9 5 -16 32 -19 72 -4 49 -12 74 -38 115 -18 28 -39 71 -47 95
-14 42 -16 116 -3 136 3 6 3 18 0 26 -4 9 -7 51 -8 94 -2 42 -3 110 -4 150 -2
56 -5 72 -17 72 -11 0 -15 12 -15 44 0 30 -5 46 -15 50 -9 3 -15 18 -15 35 0
31 -37 104 -48 97 -4 -2 -8 24 -10 57 -2 50 -7 65 -26 82 -13 11 -49 58 -80
104 -31 46 -71 97 -90 113 -25 21 -32 34 -29 52 6 32 -27 52 -58 35 -12 -6
-24 -7 -28 -2 -64 77 -68 92 -49 184 10 49 9 61 -5 92 -10 20 -31 46 -47 57
-17 12 -37 35 -46 51 -17 33 -49 69 -62 69 -24 0 -43 29 -48 74 -5 52 -45 118
-92 153 -24 17 -88 50 -132 67 -8 4 -28 15 -45 25 -16 11 -39 20 -49 20 -11 1
-27 8 -37 17 -10 9 -45 19 -78 23 -32 4 -66 13 -74 19 -11 9 -26 10 -56 3 -23
-5 -43 -6 -46 -1 -2 4 -52 10 -111 14 -59 4 -115 11 -125 16 -10 6 -33 10 -52
10 -19 0 -37 6 -39 13 -2 6 -3 78 -2 159 1 114 -2 151 -12 159 -16 13 -19 95
-4 104 6 4 10 63 10 145 0 82 4 141 10 145 6 4 10 -8 10 -29 0 -44 16 -55 31
-22 9 19 9 29 0 40 -8 9 -9 26 -3 53 6 26 5 53 -3 80 -7 23 -10 44 -7 47 2 3
-1 12 -7 20 -7 8 -10 20 -7 25 4 5 2 12 -4 16 -5 3 -10 19 -10 35 0 70 -73 31
-85 -46 -3 -24 -13 -56 -21 -72 -7 -15 -14 -35 -14 -44 0 -9 -4 -19 -9 -22 -4
-3 -11 -18 -14 -33 -7 -37 -96 -203 -108 -203 -12 0 0 50 16 70 8 8 16 32 20
53 7 33 5 37 -14 37 -24 0 -29 28 -9 48 9 9 8 12 -5 12 -25 0 -21 28 9 54 23
19 25 25 14 42 -10 17 -9 28 10 69 33 73 32 184 -2 253 -8 16 -8 28 0 45 6 12
13 40 14 62 2 28 8 40 18 40 11 0 14 -9 13 -30 -3 -31 14 -85 26 -85 20 0 51
90 51 146 0 69 3 95 14 112 4 7 3 19 -3 26 -8 10 -8 22 -1 41 6 15 10 48 9 74
-3 64 12 201 22 207 13 8 11 48 -3 62 -10 10 -10 15 2 23 12 8 12 12 2 16 -9
3 -10 9 -2 18 7 9 6 21 -5 41 -8 16 -15 37 -15 47 0 9 -4 25 -9 35 -57 111
-60 125 -51 196 4 38 6 75 3 82 -3 7 3 36 12 64 9 28 14 58 10 68 -12 27 -15
131 -5 137 13 8 13 62 1 70 -5 3 -12 19 -16 36 -7 29 -44 79 -60 79 -12 0 -34
33 -35 53 0 18 -34 24 -45 7 -3 -5 -10 -51 -15 -102 -12 -127 -28 -237 -36
-250 -4 -6 -13 -36 -20 -67 -10 -46 -31 -113 -41 -130 -1 -1 -6 0 -11 3 -10 6
6 78 25 111 6 12 13 60 15 109 3 57 9 90 17 96 9 5 10 10 2 14 -13 9 -15 83
-2 91 6 3 6 17 -1 36 -8 22 -13 27 -23 19 -9 -8 -17 -6 -29 5 -22 22 -20 33 6
37 18 2 25 12 32 46 8 36 6 45 -10 56 -16 12 -18 25 -15 91 2 66 1 77 -12 72
-8 -3 -23 0 -33 8 -16 11 -17 17 -6 40 10 21 10 26 0 23 -7 -3 -14 -14 -16
-26 -2 -12 -7 -22 -12 -22 -12 0 -20 29 -10 35 6 4 10 20 10 36 0 29 -2 30
-31 24 l-30 -7 2 44 c4 66 -15 85 -52 52 -26 -23 -39 -9 -39 42 0 48 -18 66
-45 44 -19 -16 -24 -11 -28 29 -2 17 -9 37 -15 43 -7 7 -12 20 -12 29 0 10 -4
21 -10 24 -5 3 -10 17 -10 30 0 13 -3 30 -6 39 -7 17 -34 22 -34 6 0 -5 -7
-10 -15 -10 -9 0 -15 9 -15 25 0 25 -3 27 -50 29 -20 1 -27 8 -36 41 -16 61
-24 75 -45 75 -12 0 -19 7 -19 18 0 28 -36 58 -53 44 -10 -8 -16 -6 -26 10
-16 26 -38 10 -23 -18 5 -11 12 -48 16 -83 6 -50 4 -62 -6 -59 -19 7 -38 48
-38 86 0 28 -3 32 -19 27 -13 -4 -20 0 -24 15 -3 11 -1 23 4 26 17 10 9 34
-10 34 -14 0 -21 8 -23 28 -3 27 -5 28 -65 31 -16 1 -23 7 -23 20 0 11 -5 23
-12 27 -14 9 -38 -23 -38 -53 0 -49 -37 -17 -42 37 -2 27 -8 36 -28 41 -35 8
-60 -7 -60 -36 0 -32 -17 -32 -32 0 -6 14 -17 25 -25 25 -19 0 -28 -29 -14
-43 16 -16 14 -57 -3 -57 -8 0 -17 15 -20 35 -7 37 -26 48 -26 15 0 -35 -26
-21 -59 32 -28 45 -34 49 -47 36 -13 -13 -13 -18 3 -46 20 -35 12 -53 -12 -28
-9 9 -21 14 -26 11 -11 -8 -12 -38 0 -50 20 -22 21 -60 1 -72 -10 -7 -20 -9
-22 -4 -2 4 -16 11 -31 15 -23 6 -28 4 -27 -11 4 -34 0 -43 -20 -43 -14 0 -20
7 -20 24 0 13 -7 29 -15 36 -8 7 -15 23 -15 35 0 25 -24 50 -39 41 -5 -3 2
-28 16 -55 44 -84 4 -116 -45 -36 -30 51 -42 56 -42 20 0 -27 -25 -45 -65 -45
-19 0 -26 -5 -24 -17 3 -36 -2 -37 -26 -8 -22 27 -24 28 -25 9 0 -11 7 -29 15
-40 8 -10 15 -30 15 -43 0 -20 -2 -21 -15 -11 -13 11 -15 8 -15 -14 0 -29 -29
-36 -49 -12 -14 17 -95 16 -113 -1 -17 -18 -47 -16 -54 2 -6 15 -64 22 -64 7
0 -5 7 -17 15 -28 8 -10 15 -30 15 -43 0 -25 0 -25 -31 7 -33 33 -49 34 -49 1
0 -10 -7 -19 -15 -19 -13 0 -15 -7 -9 -35 7 -37 3 -41 -26 -25 -11 6 -21 6
-25 1 -3 -5 -31 -7 -63 -5 -53 5 -56 4 -37 -11 11 -8 25 -13 31 -11 7 3 20 -1
29 -8 32 -23 16 -140 -16 -120 -15 9 -10 -13 6 -26 8 -7 15 -20 15 -29 0 -9 6
-25 14 -36 23 -34 27 -101 7 -119 -24 -22 -28 -20 -28 10 0 14 -5 35 -11 47
-6 12 -16 41 -22 65 -9 34 -15 42 -33 42 -26 0 -47 17 -47 38 0 8 -9 25 -20
40 -14 17 -17 29 -10 36 14 14 13 46 -2 47 -7 1 -25 3 -40 5 -22 2 -28 -1 -28
-16 0 -26 -14 -32 -35 -16 -20 14 -13 36 11 36 8 0 12 5 9 10 -3 6 -20 10 -37
10 -16 0 -46 7 -65 16 -48 24 -62 6 -25 -32 41 -42 82 -99 82 -114 0 -11 -3
-11 -12 -2 -7 7 -23 12 -37 12 -14 0 -37 11 -51 25 -31 29 -85 39 -85 15 0 -8
11 -20 25 -27 39 -19 31 -38 -15 -36 -22 1 -54 4 -72 8 -20 5 -50 1 -82 -10
-37 -12 -65 -14 -110 -9 -70 8 -80 -5 -36 -46 37 -35 77 -108 73 -133 -4 -20
-5 -20 -24 10 -10 18 -23 31 -29 29 -13 -4 -8 -48 10 -83 19 -35 19 -90 0
-123 -15 -27 -20 -90 -7 -90 11 0 57 50 71 78 6 12 21 22 32 22 11 0 30 5 41
11 15 8 26 8 42 0 22 -12 66 -16 129 -13 30 2 40 7 49 30 16 37 16 36 33 22 8
-7 15 -21 15 -31 0 -42 -22 -118 -41 -137 -38 -42 -9 -59 38 -22 32 25 43 25
43 1 0 -11 6 -22 13 -25 8 -4 5 -10 -10 -22 -41 -29 -29 -46 26 -38 46 6 75
-6 51 -21 -5 -3 -10 -29 -10 -57 0 -34 -6 -58 -16 -70 -14 -14 -14 -20 -4 -33
10 -12 5 -23 -34 -62 -49 -50 -49 -50 -77 0 -6 10 -22 17 -39 17 -17 0 -30 5
-30 11 0 6 -16 26 -36 44 -36 33 -36 34 -21 64 13 25 13 32 1 41 -7 7 -18 9
-24 5 -5 -3 -10 2 -10 13 0 11 -8 39 -19 62 l-19 42 -26 -35 c-14 -18 -26 -38
-26 -43 0 -5 -9 -20 -19 -34 -16 -20 -21 -22 -35 -11 -9 7 -16 25 -16 40 -1
65 -52 101 -76 52 -12 -23 -12 -23 -23 -3 -7 14 -8 29 -1 46 16 42 -8 32 -92
-39 -84 -70 -120 -81 -176 -51 -15 7 -45 19 -67 26 -62 19 -89 50 -45 50 30 0
24 22 -14 48 -50 34 -81 131 -70 221 7 57 7 171 -1 179 -10 11 -37 -18 -59
-61 -27 -55 -45 -128 -53 -215 -8 -89 61 -262 104 -262 21 0 123 -91 123 -110
0 -21 132 -150 153 -150 9 0 19 -4 22 -10 4 -6 -7 -10 -24 -10 -21 0 -31 5
-31 15 0 17 -11 20 -25 6 -10 -10 -72 4 -128 27 -16 7 -32 12 -36 12 -17 0
-166 145 -169 164 -2 12 -10 28 -18 37 -7 8 -17 31 -20 50 -4 19 -10 39 -14
44 -4 6 -11 30 -15 55 -4 24 -12 52 -18 62 -12 18 10 124 40 196 8 18 11 37 8
42 -3 5 4 29 16 54 14 30 19 55 15 71 -4 16 -1 34 9 48 21 31 19 46 -10 57
-14 5 -25 15 -25 22 0 7 -8 27 -17 43 -11 21 -18 63 -21 138 -3 78 -8 107 -17
107 -15 0 -25 -22 -25 -55 0 -13 -5 -27 -12 -31 -8 -5 -9 13 -4 69 5 52 3 76
-4 79 -15 5 -2 58 15 65 7 2 30 -7 52 -21 59 -39 118 -40 133 -1 12 32 21 31
60 -2 29 -24 30 -28 16 -38 -20 -15 -21 -55 -2 -55 23 0 31 -22 12 -32 -9 -5
-16 -17 -16 -28 0 -10 -7 -25 -15 -34 -18 -18 -20 -72 -3 -82 7 -4 33 -9 59
-10 61 -3 69 -8 69 -46 l0 -31 46 7 c26 3 53 11 60 16 16 14 31 -7 15 -23 -6
-6 -11 -22 -11 -37 0 -14 -4 -30 -8 -35 -9 -13 -95 -55 -113 -55 -15 0 -49
-72 -49 -103 0 -9 6 -17 13 -17 21 0 47 34 47 62 0 24 2 24 55 20 50 -4 55 -3
64 19 5 13 29 42 52 64 57 52 75 81 84 132 5 35 30 75 38 62 1 -2 10 -17 19
-34 18 -33 21 -33 203 -27 33 2 82 1 108 -1 45 -3 48 -2 43 18 -3 12 1 30 9
41 8 10 15 27 15 37 0 13 8 17 34 17 19 0 36 -4 38 -9 2 -4 27 -11 56 -15 43
-5 52 -4 52 9 0 8 -18 26 -40 40 -70 44 -37 64 40 24 27 -14 45 -18 51 -12 6
6 4 14 -6 23 -8 7 -15 17 -15 22 0 15 38 -1 67 -28 26 -24 43 -31 43 -16 0 15
-33 107 -41 117 -14 15 -10 45 5 45 8 0 21 -6 28 -14 8 -7 24 -17 36 -20 31
-10 29 15 -3 45 -13 13 -25 27 -25 32 0 13 37 7 50 -8 7 -8 23 -15 36 -15 24
0 32 14 14 25 -16 10 -12 35 5 35 20 0 78 -29 87 -44 12 -18 40 6 53 44 14 42
26 46 50 20 18 -20 65 -28 65 -12 0 5 -9 17 -19 26 -25 23 -32 53 -16 66 10 8
15 6 20 -9 3 -12 12 -21 19 -21 7 0 25 -13 41 -30 16 -16 34 -30 41 -30 22 0
27 20 10 39 -9 9 -19 32 -22 50 -7 32 -6 33 17 26 13 -4 27 -14 32 -21 4 -7
14 -11 22 -8 12 5 11 11 -6 35 -17 25 -18 30 -5 35 9 3 27 -7 45 -28 29 -31
32 -32 45 -15 8 10 20 15 30 11 19 -7 21 11 6 52 -13 33 -5 44 14 18 25 -34
30 -5 7 37 -31 54 -18 63 25 16 19 -20 39 -37 44 -37 16 0 11 23 -10 50 -25
32 -25 50 0 50 11 0 20 -4 20 -10 0 -5 6 -10 13 -10 7 0 31 -18 52 -40 56 -57
71 -54 70 17 0 51 3 58 25 70 20 10 27 9 41 -2 8 -8 24 -15 35 -15 11 0 29 -7
41 -15 12 -8 28 -12 37 -9 11 4 19 -2 26 -20 14 -38 32 -32 29 8 -5 50 5 52
35 6 14 -22 33 -40 41 -40 17 0 35 -30 35 -59 0 -34 20 -35 54 -2 42 41 62 40
70 -4 5 -25 12 -35 26 -35 10 0 22 5 25 11 4 6 14 8 22 4 9 -3 24 2 34 11 22
20 39 11 39 -22 0 -17 5 -24 20 -24 19 0 20 -4 14 -50 -7 -53 6 -68 26 -30 8
15 17 19 34 14 13 -3 27 -1 30 5 4 5 12 8 20 5 7 -3 18 7 25 22 16 35 24 24
31 -38 3 -31 11 -54 20 -58 8 -4 25 -12 37 -18 30 -16 33 -15 33 6 0 26 11 34
27 21 7 -7 13 -32 13 -60 0 -49 16 -68 22 -26 6 41 33 26 38 -23 4 -37 9 -45
25 -45 17 0 20 -8 23 -55 3 -59 14 -80 42 -80 11 0 22 -12 29 -30 6 -18 17
-30 28 -30 16 0 18 -9 18 -62 0 -56 2 -63 21 -66 40 -6 46 18 45 174 -1 81 -5
150 -10 153 -5 3 -12 20 -15 38 -9 39 -57 135 -77 153 -3 3 -12 23 -20 45 -10
27 -21 39 -32 37 -10 -2 -22 9 -32 28 -9 17 -38 53 -65 80 -28 28 -50 54 -50
60 0 12 -18 23 -41 24 -11 1 -26 16 -37 36 -12 25 -25 36 -47 40 -26 4 -30 10
-37 49 -8 48 -4 61 18 61 8 0 14 -10 14 -26 0 -16 5 -24 13 -21 16 6 10 51
-13 100 -10 21 -17 44 -14 51 3 7 -9 25 -25 39 -20 16 -31 35 -31 51 0 31
-112 144 -176 176 -26 14 -49 35 -56 51 -7 16 -18 29 -23 29 -6 0 -18 9 -28
20 -11 14 -29 20 -55 20 -26 0 -45 7 -57 20 -10 12 -24 19 -31 16 -7 -3 -18 2
-24 10 -16 18 -126 19 -177 0 -79 -28 -115 -38 -120 -32 -3 3 -15 -1 -27 -9
-11 -8 -28 -15 -37 -15 -9 0 -19 -7 -23 -15 -3 -8 -13 -15 -22 -15 -9 0 -33
-13 -54 -30 -21 -16 -44 -30 -51 -30 -8 0 -27 -9 -44 -20 -16 -11 -40 -20 -52
-20 -24 0 -86 29 -142 67 -19 13 -43 23 -54 23 -22 0 -73 15 -124 37 -17 7
-40 13 -51 13 -12 0 -23 4 -26 9 -3 4 -24 5 -46 1 -31 -6 -40 -4 -40 6 0 10
-17 14 -62 14 -35 1 -92 8 -128 16 -78 19 -105 23 -190 29 -102 7 -353 13
-375 8z m1790 -154 c22 -12 63 -42 92 -66 38 -33 53 -41 59 -31 5 7 7 21 6 31
-5 25 14 21 66 -14 41 -28 47 -29 58 -15 16 23 22 20 29 -13 3 -16 17 -39 31
-51 13 -13 24 -29 24 -35 0 -6 11 -35 26 -64 25 -52 29 -85 9 -79 -5 1 -32 31
-60 67 -27 35 -57 67 -65 71 -8 4 -30 14 -47 23 -19 9 -35 12 -38 6 -11 -16
-49 -10 -95 17 -25 14 -53 23 -64 20 -11 -3 -40 0 -66 5 -46 11 -119 13 -129
4 -3 -3 1 -15 8 -26 16 -27 7 -36 -27 -23 -15 6 -37 7 -47 4 -14 -5 -27 -1
-42 13 -28 25 -29 34 -3 42 11 3 33 20 50 37 l31 30 49 -16 c27 -9 67 -16 89
-16 37 0 41 3 41 24 0 14 -10 30 -25 40 -27 18 -33 36 -12 36 7 0 30 -10 52
-21z m-1028 -141 c20 -28 21 -34 9 -46 -11 -11 -12 -21 -4 -44 6 -16 7 -32 3
-36 -7 -7 -26 20 -37 53 -9 28 -9 105 0 105 4 0 17 -15 29 -32z m748 -58 c10
-11 25 -20 33 -20 11 0 13 -9 8 -40 -6 -37 -4 -41 19 -50 29 -11 34 -40 6 -40
-11 0 -23 -4 -26 -10 -13 -21 -24 -8 -30 38 -4 26 -12 52 -19 57 -16 14 -46
62 -46 75 0 17 36 11 55 -10z m-635 -20 c0 -11 -4 -20 -10 -20 -5 0 -10 9 -10
20 0 11 5 20 10 20 6 0 10 -9 10 -20z m-1143 -344 c4 -3 4 -9 0 -12 -7 -7 -77
17 -77 27 0 8 68 -6 77 -15z m-15 -52 c15 -8 34 -14 43 -14 43 0 122 -76 112
-109 -1 -4 17 -38 40 -74 44 -70 59 -141 35 -170 -10 -11 -9 -20 3 -43 19 -37
20 -118 1 -134 -8 -6 -12 -18 -10 -25 3 -8 -1 -24 -10 -37 -9 -12 -16 -32 -16
-43 -1 -25 -53 -89 -68 -84 -8 3 -4 16 12 39 14 19 26 42 27 50 5 27 -12 162
-22 174 -38 47 -89 117 -89 122 0 10 54 -6 72 -23 20 -18 38 -10 38 17 0 47
-123 69 -221 40 -33 -10 -61 -14 -65 -9 -3 5 -18 9 -35 9 -24 0 -29 4 -29 23
0 32 25 64 65 83 34 16 47 43 23 45 -7 1 -17 2 -23 4 -5 1 -14 3 -19 3 -5 1
-3 8 3 16 15 18 4 25 -30 21 -27 -3 -62 13 -44 21 45 20 60 32 58 50 -1 10 5
23 13 27 8 4 14 17 14 27 0 18 5 19 48 13 26 -3 59 -12 74 -19z m-434 -178
c21 -48 23 -138 4 -190 -18 -51 -42 -73 -42 -39 0 10 7 29 16 41 20 30 8 49
-17 26 -18 -16 -19 -16 -19 4 0 12 9 31 20 42 24 24 17 44 -11 35 -16 -6 -18
-2 -13 24 8 40 -10 41 -31 2 -18 -36 -35 -48 -35 -26 0 20 83 105 102 105 8 0
20 -11 26 -24z m242 -6 c0 -5 -5 -10 -11 -10 -5 0 -7 5 -4 10 3 6 8 10 11 10
2 0 4 -4 4 -10z m1524 -489 c-6 -6 -24 19 -24 34 1 6 7 1 15 -9 8 -11 12 -22
9 -25z m-1814 -126 c0 -8 -4 -15 -9 -15 -5 0 -14 7 -21 15 -10 13 -9 15 9 15
12 0 21 -6 21 -15z m2566 -94 c-15 -24 7 -41 53 -41 26 0 51 4 57 8 22 19 82
32 105 24 13 -5 30 -7 36 -5 7 3 23 -3 35 -11 12 -9 31 -16 41 -16 17 0 18 -5
13 -35 -6 -33 -5 -35 19 -35 20 0 25 -5 25 -25 0 -14 7 -28 16 -32 18 -7 60
30 68 61 4 17 13 22 40 22 30 0 38 -5 50 -31 19 -39 51 -69 65 -60 16 10 13
-6 -9 -48 -31 -57 -20 -77 41 -77 27 0 49 -3 49 -7 0 -3 -11 -20 -24 -38 -13
-17 -26 -40 -28 -51 -5 -33 25 -21 57 23 16 23 33 42 38 42 14 2 7 -21 -18
-53 -17 -23 -25 -46 -25 -73 0 -37 4 -42 35 -57 19 -9 37 -21 40 -26 10 -17
69 -11 95 10 34 26 54 27 40 1 -5 -11 -10 -31 -10 -44 0 -14 -6 -30 -13 -36
-15 -12 -11 -71 4 -71 17 0 9 -16 -27 -53 -35 -35 -37 -36 -64 -22 -37 19 -48
19 -52 -2 -4 -20 7 -76 22 -108 6 -11 14 -74 19 -140 14 -166 39 -430 49 -501
4 -32 4 -93 0 -134 -31 -272 -32 -488 -4 -650 3 -14 8 -68 12 -120 4 -52 11
-100 15 -106 12 -15 12 -285 0 -314 -5 -14 -13 -51 -16 -82 -4 -32 -11 -60
-16 -63 -5 -4 -9 -16 -9 -28 0 -12 -7 -34 -14 -49 -8 -16 -18 -48 -22 -73 -3
-25 -10 -48 -15 -51 -5 -3 -9 -16 -9 -29 0 -13 -7 -45 -16 -71 -18 -54 -32
-120 -45 -224 -6 -41 -16 -95 -24 -120 -7 -25 -16 -72 -19 -105 -2 -33 -8 -71
-11 -85 -4 -14 -11 -45 -15 -70 -13 -74 -44 -167 -71 -210 -5 -8 -13 -24 -18
-35 -5 -11 -21 -33 -35 -49 -14 -16 -26 -33 -26 -37 0 -13 -167 -179 -180
-179 -5 0 -10 -6 -10 -13 0 -13 -91 -77 -111 -77 -6 0 -29 -15 -49 -32 -62
-53 -128 -98 -145 -98 -8 0 -15 -6 -15 -14 0 -8 -13 -17 -28 -21 -15 -3 -48
-19 -72 -35 -25 -17 -50 -30 -56 -30 -6 0 -17 -7 -24 -15 -7 -8 -25 -15 -39
-15 -15 0 -36 -7 -47 -15 -10 -8 -29 -15 -42 -15 -13 0 -31 -4 -41 -10 -18 -9
-132 -24 -261 -35 -36 -2 -93 -7 -128 -11 -40 -3 -68 -1 -77 6 -8 6 -16 7 -19
2 -7 -11 -54 -13 -61 -2 -3 5 -40 8 -83 9 -43 0 -100 5 -127 11 -28 6 -59 12
-70 14 -45 8 -82 19 -120 36 -82 36 -111 48 -160 66 -73 27 -156 72 -190 104
-16 15 -46 36 -65 47 -42 21 -58 34 -118 91 -24 23 -47 42 -50 42 -12 0 -202
195 -202 207 0 7 -6 13 -12 14 -7 0 -22 12 -34 27 -36 47 -114 207 -114 234 0
8 -4 18 -9 23 -9 9 -28 76 -52 185 -6 25 -14 54 -18 65 -22 56 -34 94 -40 132
-4 23 -12 48 -18 55 -6 7 -13 32 -17 56 -4 24 -20 73 -36 109 -17 36 -30 71
-30 78 0 7 -7 18 -15 25 -8 7 -15 22 -15 34 0 12 -7 31 -15 42 -8 10 -15 28
-15 39 0 11 -6 29 -13 40 -8 11 -19 38 -24 60 -6 22 -25 79 -43 128 -18 50
-29 95 -25 107 7 21 -14 66 -52 117 l-24 31 23 4 c37 5 34 39 -9 85 -21 23
-46 55 -56 72 l-18 31 25 0 c26 0 36 23 17 35 -6 3 -7 15 -3 28 12 41 3 184
-16 253 -11 41 -16 77 -12 89 5 15 -6 49 -40 118 -26 53 -43 97 -38 97 5 0 17
-13 26 -30 20 -34 33 -42 53 -29 12 7 11 13 -4 38 -23 39 -23 59 2 37 16 -14
20 -15 30 -2 10 11 6 24 -19 64 -34 55 -37 72 -15 72 9 0 15 9 16 23 l0 22 11
-22 c6 -13 17 -23 23 -23 45 0 43 95 -4 185 -17 33 -26 54 -19 47 19 -19 28
-14 28 16 1 26 1 26 16 7 8 -11 20 -28 27 -38 11 -17 14 -17 45 -2 25 13 32
23 32 46 0 17 5 40 11 51 8 14 8 23 0 31 -16 16 -14 42 5 58 16 13 15 60 -3
105 -5 14 -2 16 21 10 26 -6 27 -5 25 26 -1 18 1 43 5 54 4 14 -1 43 -14 75
-26 70 -25 76 4 42 27 -32 48 -24 26 10 -8 12 -14 39 -15 60 0 29 3 37 17 37
19 0 23 27 18 118 -2 39 11 55 25 32 3 -5 21 -10 38 -10 26 -1 38 -9 65 -45
17 -24 32 -48 32 -52 0 -11 106 -112 147 -141 18 -12 38 -22 46 -22 7 0 18 -5
24 -11 20 -20 117 -39 173 -34 90 8 117 15 130 30 6 8 31 21 54 30 42 16 44
16 81 -9 35 -24 45 -26 144 -24 58 0 111 4 116 8 6 4 33 10 62 13 55 6 90 22
111 50 7 9 19 17 25 17 15 0 116 103 140 142 9 15 17 34 17 41 0 8 6 20 14 26
8 7 15 40 18 82 3 39 11 76 17 82 6 6 11 19 11 28 0 10 9 33 20 52 11 19 18
41 15 50 -4 8 -1 18 6 22 9 6 10 -6 5 -53 -4 -36 -3 -63 3 -66 10 -7 61 13 61
23 0 3 7 15 15 26 15 19 15 19 31 -3 19 -28 37 -28 49 0 6 13 22 29 36 35 32
16 40 26 64 83 24 58 22 56 45 35 17 -15 24 -16 45 -7 14 6 25 20 26 29 0 14
2 13 9 -4 5 -13 14 -23 19 -23 10 0 51 79 51 99 0 7 7 10 18 7 12 -4 26 1 37
14 10 11 38 29 64 42 25 12 48 25 51 28 12 17 53 31 68 24 9 -4 37 -10 62 -14
25 -5 55 -11 66 -15 16 -5 31 2 57 24 19 17 42 31 51 31 9 0 16 7 16 15 0 8 7
15 16 15 8 0 13 -4 10 -9z m502 -38 c-5 -25 -28 -28 -28 -4 0 12 6 21 16 21 9
0 14 -7 12 -17z m-1428 -138 c0 -8 -2 -15 -4 -15 -2 0 -6 7 -10 15 -3 8 -1 15
4 15 6 0 10 -7 10 -15z m-2074 -17 c-3 -13 -6 -29 -6 -35 0 -7 -4 -13 -10 -13
-11 0 -13 30 -4 54 9 25 27 19 20 -6z m-21 -110 c-11 -55 -24 -161 -24 -201
-1 -30 3 -40 18 -44 20 -5 31 -46 31 -115 0 -20 5 -40 10 -43 13 -8 13 -75 0
-75 -22 0 -55 118 -46 168 4 29 2 43 -9 52 -12 10 -15 9 -15 -8 0 -27 -10 -52
-21 -52 -13 0 2 180 18 210 7 14 13 42 13 63 0 36 14 77 26 77 3 0 2 -15 -1
-32z m-90 -191 c0 -39 -19 -38 -23 2 -3 24 0 32 10 29 7 -3 13 -17 13 -31z
m-50 -279 c4 -29 3 -48 -2 -48 -11 0 -31 80 -25 99 7 22 20 -2 27 -51z m4422
-130 c-3 -7 -5 -2 -5 12 0 14 2 19 5 13 2 -7 2 -19 0 -25z m-2 -102 c-3 -33
-11 -66 -17 -73 -5 -7 -9 -25 -8 -40 3 -41 -11 -94 -24 -90 -6 3 -9 11 -7 18
2 8 8 39 13 69 4 30 11 69 14 85 3 17 8 47 11 67 9 65 26 31 18 -36z m-3945
-305 c0 -9 4 -21 9 -26 15 -17 23 -55 11 -55 -6 0 -13 14 -17 30 -3 17 -10 33
-14 36 -5 3 -9 14 -9 25 0 11 5 17 10 14 6 -3 10 -14 10 -24z m3906 -17 c-2
-14 -9 -32 -18 -40 -13 -13 -16 -12 -28 10 -10 21 -11 28 0 41 21 25 49 19 46
-11z m64 -173 c0 -6 -4 -13 -10 -16 -16 -10 -12 -55 6 -62 12 -4 14 -14 9 -43
-5 -27 -2 -40 9 -50 18 -14 21 -46 6 -55 -5 -3 -10 -15 -10 -26 0 -11 -7 -22
-15 -26 -9 -3 -15 -13 -14 -22 3 -36 -2 -60 -16 -75 -8 -8 -15 -19 -15 -25 0
-5 -5 -13 -12 -17 -8 -5 -10 9 -6 53 6 67 2 79 -27 84 -29 6 -30 34 0 72 21
29 26 47 29 114 2 44 6 85 10 92 9 13 56 15 56 2z m-4080 -17 c0 -8 -4 -12
-10 -9 -5 3 -10 10 -10 16 0 5 5 9 10 9 6 0 10 -7 10 -16z m-21 -456 c0 -28
-2 -30 -9 -13 -12 28 -12 45 0 45 6 0 10 -15 9 -32z m4301 -470 c0 -18 5 -47
12 -65 9 -25 9 -36 0 -45 -17 -17 -19 -12 -27 76 -5 56 -4 76 4 72 6 -4 11
-21 11 -38z m-4583 -215 c-3 -10 -5 -4 -5 12 0 17 2 24 5 18 2 -7 2 -21 0 -30z
m273 -123 c59 -69 80 -87 113 -96 44 -11 68 -42 82 -103 4 -18 13 -44 21 -59
8 -15 14 -37 14 -49 0 -12 4 -24 9 -27 5 -3 12 -17 15 -31 6 -23 64 -157 85
-195 5 -9 12 -30 16 -48 6 -31 5 -32 -24 -32 -17 0 -47 8 -68 17 -45 21 -133
106 -133 129 0 8 -7 22 -16 31 -8 9 -14 25 -12 37 3 24 -114 216 -132 216 -5
0 -10 11 -10 25 0 14 -4 25 -10 25 -5 0 -10 8 -10 18 0 10 -6 26 -14 37 -7 11
-17 35 -21 54 -8 38 3 144 14 139 5 -2 41 -41 81 -88z m4153 15 c-3 -9 -8 -14
-10 -11 -3 3 -2 9 2 15 9 16 15 13 8 -4z m-60 -110 c-15 -25 -31 -45 -35 -45
-13 0 -9 17 6 29 8 7 22 29 32 49 9 20 19 31 22 24 2 -7 -9 -32 -25 -57z m197
39 c0 -38 -21 -166 -30 -189 -5 -11 -12 -39 -15 -62 -4 -26 -12 -43 -20 -43
-8 0 -21 -10 -29 -22 -9 -12 -19 -19 -22 -15 -11 10 15 86 42 126 13 20 24 44
24 53 0 10 6 27 12 38 10 15 10 27 1 50 -10 25 -9 36 5 60 21 37 32 38 32 4z
m-360 -94 c0 -13 -7 -20 -19 -20 -16 0 -20 -8 -23 -42 -4 -52 -31 -61 -36 -12
-2 22 5 40 23 63 30 35 55 40 55 11z m270 -35 c0 -3 -13 -26 -29 -51 -19 -31
-31 -42 -36 -34 -4 7 3 22 19 36 14 14 26 31 26 39 0 8 5 15 10 15 6 0 10 -2
10 -5z m-369 -93 c5 -14 3 -26 -6 -36 -11 -10 -12 -22 -5 -47 13 -44 13 -89 0
-89 -5 0 -10 -20 -10 -44 0 -24 -3 -58 -6 -75 -5 -26 -9 -29 -21 -20 -23 20
-40 -5 -24 -35 10 -18 10 -29 2 -45 -21 -39 -61 -19 -61 31 0 15 -4 28 -10 28
-5 0 -12 15 -16 34 -7 41 13 105 39 125 10 7 16 19 13 26 -2 7 6 23 20 36 30
28 33 63 4 54 -41 -13 -19 36 30 69 30 19 40 17 51 -12z m294 -12 c7 -11 -10
-45 -36 -74 -19 -20 -19 -20 -19 3 0 24 29 81 42 81 4 0 10 -4 13 -10z m115
-216 c-18 -52 -25 -33 -9 23 7 27 15 40 17 30 2 -9 -2 -33 -8 -53z m-4301 -77
c0 -7 -7 -28 -14 -47 l-13 -35 -1 35 c-1 19 -4 46 -8 59 -5 21 -4 22 16 12 11
-7 21 -17 20 -24z m4281 24 c0 -6 -4 -13 -10 -16 -5 -3 -10 1 -10 9 0 9 5 16
10 16 6 0 10 -4 10 -9z m-4125 -181 c3 -5 1 -10 -4 -10 -6 0 -11 5 -11 10 0 6
2 10 4 10 3 0 8 -4 11 -10z m-67 -41 c5 -25 -48 -92 -110 -141 -60 -48 -78
-52 -78 -19 0 22 19 41 43 41 25 0 95 72 109 111 10 30 31 35 36 8z m-848 -11
c-1 -2 -7 -27 -13 -57 -12 -49 -14 -52 -29 -38 -24 25 -34 3 -33 -75 0 -73 -6
-84 -24 -40 -8 20 -9 36 -2 54 5 14 7 28 4 31 -3 3 -2 19 2 36 4 20 11 28 20
24 9 -3 21 8 32 31 9 20 23 36 30 36 7 0 13 -1 13 -2z m5448 -99 c2 -12 -5
-17 -25 -17 -28 0 -46 15 -36 31 9 14 58 3 61 -14z m196 -4 c19 -20 30 -24 54
-19 24 5 31 2 35 -12 4 -15 2 -102 -2 -111 -1 -3 -69 24 -98 39 -17 8 -23 20
-23 45 0 18 -4 33 -10 33 -5 0 -10 11 -10 25 0 33 24 33 54 0z m-5249 -16 c4
-11 4 -23 1 -26 -8 -9 -36 17 -36 33 0 22 28 16 35 -7z m-75 -26 c0 -24 -25
-9 -28 17 -3 21 -2 22 12 11 9 -7 16 -20 16 -28z m5581 1 c10 -12 25 -14 73
-9 55 6 62 4 74 -15 17 -28 6 -43 -29 -36 -22 4 -31 1 -39 -14 -15 -27 -36
-25 -56 5 -9 14 -25 25 -37 25 -18 0 -19 -4 -13 -46 7 -51 8 -51 -56 -9 -41
27 -46 33 -41 60 8 42 18 50 48 37 20 -9 27 -9 37 3 17 18 23 18 39 -1z
m-5632 -37 c24 -49 25 -57 11 -57 -10 0 -50 71 -50 90 0 24 20 7 39 -33z m530
-25 c-2 -10 1 -41 5 -70 8 -55 -4 -88 -30 -78 -7 3 -18 -2 -24 -10 -16 -18 1
-41 33 -46 17 -2 22 -9 21 -33 -1 -16 -4 -86 -7 -155 -4 -73 -10 -126 -17
-128 -5 -2 -10 -16 -10 -31 0 -68 -34 -25 -45 56 -9 69 -35 128 -55 128 -28 0
-34 -32 -21 -112 7 -43 12 -87 11 -98 -1 -39 -6 -80 -11 -95 -38 -104 -48
-160 -29 -160 6 0 10 -9 10 -19 0 -11 -4 -23 -10 -26 -5 -3 -10 -27 -10 -53
-1 -26 -9 -65 -20 -87 -11 -22 -19 -51 -20 -64 0 -13 -11 -39 -26 -58 -20 -27
-32 -33 -63 -33 -38 0 -91 19 -91 33 0 4 18 7 39 7 52 0 58 13 16 33 -38 18
-44 31 -20 41 11 4 15 20 15 55 0 40 4 51 19 56 16 5 19 12 14 41 -4 24 -1 40
10 52 10 11 13 23 8 31 -11 17 6 72 28 89 13 11 13 16 2 33 -25 42 -21 100 11
153 18 31 27 54 22 65 -4 9 -8 43 -10 76 -2 33 -5 72 -8 87 -6 33 23 58 66 58
30 0 40 26 13 36 -19 8 -19 41 0 74 8 14 14 41 15 61 0 51 19 70 91 94 69 23
81 22 78 -3z m-530 -112 c6 0 11 -4 11 -10 0 -5 -7 -10 -15 -10 -21 0 -75 28
-75 39 0 4 -12 13 -26 20 -21 9 -24 14 -14 26 11 13 19 9 60 -25 26 -22 53
-40 59 -40z m-59 -84 c0 -17 -32 -15 -38 2 -2 7 6 12 17 12 12 0 21 -6 21 -14z
m90 -66 c0 -5 -9 -14 -20 -20 -11 -6 -20 -19 -20 -29 0 -21 -40 -51 -67 -51
-10 0 -29 7 -41 16 -19 13 -21 19 -11 30 9 11 9 18 1 26 -20 20 -13 26 26 21
20 -2 48 0 62 6 32 13 70 14 70 1z m5287 -198 c10 -10 39 -33 64 -50 26 -17
49 -38 52 -47 8 -20 37 -20 37 0 0 9 -12 33 -26 55 -35 52 -25 63 12 14 26
-34 29 -44 26 -106 -2 -57 0 -68 13 -68 18 0 45 57 45 95 0 45 28 29 38 -22
12 -60 1 -344 -13 -341 -5 2 -9 7 -7 12 6 18 -20 55 -35 49 -18 -7 -40 22 -48
64 -10 55 -45 48 -45 -10 0 -16 -3 -18 -12 -9 -8 8 -9 18 -1 35 9 18 7 36 -5
75 -32 97 -64 96 -57 -1 4 -57 4 -59 -6 -22 -35 136 -38 147 -54 147 -21 0
-30 -31 -18 -62 11 -29 10 -32 -14 -41 -30 -11 -43 -5 -43 24 0 12 -8 31 -16
42 -14 19 -16 19 -28 3 -10 -13 -15 -15 -24 -6 -9 9 -15 9 -24 0 -18 -18 -25
-15 -31 17 -4 17 -14 30 -26 34 -12 3 -21 12 -21 20 0 12 8 14 35 10 32 -5 35
-3 35 17 0 13 -7 31 -16 41 -23 25 -11 35 42 38 26 0 50 3 52 6 3 3 27 5 53 5
34 0 54 -6 66 -18z m375 -49 c10 -9 18 -20 18 -25 0 -5 11 -24 24 -41 13 -18
30 -51 36 -74 7 -23 28 -56 46 -74 19 -18 34 -39 34 -46 0 -7 7 -10 15 -7 17
7 21 79 5 89 -14 8 -13 85 1 85 6 0 9 -6 6 -12 -2 -7 0 -21 5 -31 5 -10 11
-43 13 -72 4 -67 11 -78 41 -71 25 7 30 -6 24 -57 -2 -23 18 -47 38 -47 9 0
26 -10 40 -22 13 -13 31 -23 40 -23 9 0 16 -6 14 -13 -4 -20 26 -26 43 -8 25
25 35 19 19 -11 -18 -36 -18 -83 0 -83 7 0 27 26 42 57 32 63 44 50 20 -22
-27 -77 -16 -97 31 -53 13 12 25 20 27 17 11 -10 -22 -111 -42 -131 -19 -19
-25 -21 -42 -10 -11 6 -29 12 -41 12 -18 0 -20 4 -15 26 11 41 -25 27 -47 -18
-21 -42 -44 -50 -49 -17 -4 30 -35 49 -48 29 -5 -8 -10 -12 -12 -10 -19 31
-28 55 -28 81 0 22 -5 32 -20 36 -16 4 -20 14 -20 49 0 23 -5 46 -10 49 -7 4
-7 12 0 25 14 27 13 63 -2 58 -7 -3 -18 -15 -25 -28 -11 -22 -13 -23 -19 -6
-4 10 -2 27 5 37 8 15 8 24 0 42 -7 12 -15 29 -19 37 -4 8 -15 17 -25 19 -15
2 -16 -1 -10 -20 13 -39 18 -140 7 -151 -6 -6 -17 6 -30 33 -23 46 -21 62 6
52 10 -5 6 4 -11 21 -31 30 -47 27 -47 -10 0 -43 -25 -21 -30 26 -5 44 -30 70
-30 31 0 -11 -5 -23 -10 -26 -15 -9 -25 24 -11 38 13 13 15 53 3 61 -4 2 -7
28 -5 58 1 47 4 53 22 51 24 -3 33 25 15 47 -15 19 -29 70 -18 70 4 0 16 -7
26 -17z m-5812 -117 c0 -3 -4 -8 -10 -11 -5 -3 -10 -1 -10 4 0 6 5 11 10 11 6
0 10 -2 10 -4z m50 -56 c0 -5 -4 -10 -10 -10 -5 0 -10 5 -10 10 0 6 5 10 10
10 6 0 10 -4 10 -10z m4610 -66 c0 -38 21 -58 50 -49 14 4 28 1 41 -11 16 -14
23 -15 45 -6 33 16 31 17 39 -20 17 -81 -4 -218 -43 -273 -12 -18 -13 -15 -8
30 3 28 8 67 12 88 6 34 4 39 -12 35 -14 -2 -21 -16 -27 -53 -8 -49 -21 -75
-38 -75 -12 0 -11 41 0 59 12 19 -39 122 -59 120 -32 -3 -40 2 -40 21 0 24
-13 26 -30 5 -7 -8 -18 -15 -24 -15 -6 0 -17 -9 -24 -20 -7 -11 -19 -20 -27
-20 -18 0 -19 -5 6 60 12 30 23 65 26 78 7 31 20 36 33 12 6 -11 17 -20 25
-20 17 0 20 35 5 45 -15 9 -12 36 7 57 16 18 18 18 30 2 7 -10 13 -32 13 -50z
m-4545 16 c-21 -21 -32 -27 -39 -19 -13 12 26 49 52 49 11 0 8 -8 -13 -30z
m4355 5 c16 -19 9 -121 -10 -138 -8 -7 -14 -8 -16 -2 -15 37 -23 40 -51 24
-15 -10 -32 -26 -37 -36 -13 -28 -73 -66 -91 -59 -17 6 -21 46 -4 46 6 0 20
12 31 26 11 14 27 23 34 20 19 -7 40 32 25 47 -15 15 -14 52 2 65 11 9 41 16
88 21 9 0 22 -6 29 -14z m-3668 -21 c7 -6 -39 -54 -52 -54 -16 0 -11 19 10 40
20 20 32 24 42 14z m-627 -34 c5 -9 -30 -100 -39 -100 -3 0 -11 3 -20 6 -20 8
-11 50 17 82 22 24 33 27 42 12z m4735 -164 c0 -30 16 -42 35 -26 12 10 16 9
21 -4 4 -10 16 -16 28 -15 43 3 46 0 46 -45 0 -26 6 -48 15 -56 8 -7 15 -28
15 -46 0 -36 25 -49 36 -19 9 23 24 18 24 -9 0 -42 -55 -146 -77 -146 -7 0
-19 14 -28 30 -19 36 -19 36 -45 8 -11 -12 -22 -19 -25 -16 -6 6 14 45 59 116
14 22 22 43 19 46 -14 13 -31 5 -37 -18 -3 -13 -18 -32 -33 -41 -16 -10 -41
-33 -56 -51 -31 -37 -45 -42 -53 -19 -4 9 4 25 19 39 19 18 26 34 26 62 0 22
4 53 9 69 12 39 5 60 -14 44 -8 -6 -14 -20 -14 -30 0 -10 -4 -21 -10 -24 -9
-6 -9 11 6 133 6 46 34 61 34 18z m-1063 -63 c-16 -16 -17 -16 -17 3 0 11 3
24 7 28 4 3 11 2 17 -4 7 -7 5 -16 -7 -27z m18 -103 c-3 -5 -11 -10 -16 -10
-6 0 -7 5 -4 10 3 6 11 10 16 10 6 0 7 -4 4 -10z m-2678 -6 c-8 -8 -139 -23
-150 -17 -22 13 13 23 80 23 42 0 74 -3 70 -6z m-177 -20 c0 -2 -15 -4 -32 -3
-27 0 -29 2 -13 8 18 8 45 4 45 -5z m2820 2 c0 -3 -4 -8 -10 -11 -5 -3 -10 -1
-10 4 0 6 5 11 10 11 6 0 10 -2 10 -4z m-2720 -42 c-53 -16 -70 -17 -70 -5 0
9 36 17 90 19 16 0 8 -5 -20 -14z m5310 -4 c0 -5 -4 -10 -10 -10 -5 0 -10 5
-10 10 0 6 5 10 10 10 6 0 10 -4 10 -10z m-6117 -17 c48 -5 57 -13 34 -31 -9
-8 -27 -7 -62 5 -28 9 -56 18 -63 20 -7 1 -10 8 -7 14 4 6 16 8 29 4 11 -4 42
-10 69 -12z m4927 -11 c0 -10 -5 -23 -11 -29 -12 -12 -3 -53 10 -53 5 0 21 16
36 35 21 29 30 34 41 24 11 -9 22 -8 48 5 45 21 51 20 64 -8 8 -18 16 -23 31
-19 19 5 21 1 21 -37 0 -40 1 -42 26 -36 l26 7 -7 -58 c-4 -32 -13 -65 -20
-73 -7 -8 -17 -33 -20 -55 -9 -46 -19 -69 -43 -93 -9 -10 -27 -30 -39 -45 -24
-31 -43 -29 -43 4 0 25 -30 37 -41 17 -17 -31 -48 -63 -54 -57 -3 4 -7 35 -8
70 -2 58 -4 64 -26 69 -38 9 -47 32 -29 78 16 42 14 54 -14 65 -20 7 -24 32
-8 42 13 8 13 52 -1 61 -8 4 -8 9 0 17 6 6 11 17 11 23 0 7 4 24 10 38 11 30
40 35 40 8z m-4085 -22 c-20 -22 -10 -44 27 -56 16 -5 19 -12 14 -38 -5 -25
-2 -37 14 -51 11 -10 20 -26 20 -35 0 -10 7 -20 15 -24 26 -10 16 -45 -25 -90
-32 -35 -40 -49 -35 -68 4 -16 1 -29 -9 -37 -23 -20 -19 -36 11 -50 27 -12 27
-13 8 -27 -10 -8 -28 -14 -39 -14 -16 0 -80 -18 -94 -26 -2 -1 2 -12 8 -24 10
-18 8 -26 -9 -44 -27 -28 -26 -34 3 -46 19 -7 26 -19 31 -54 6 -37 12 -48 36
-58 39 -17 37 -29 -13 -55 -34 -17 -56 -21 -103 -19 -33 2 -67 6 -75 9 -8 3
-42 10 -74 16 -60 11 -78 23 -69 46 2 7 -10 23 -26 35 -35 24 -40 40 -13 40
27 0 74 54 70 80 -2 16 5 27 27 39 17 9 48 36 71 61 37 41 41 49 39 95 -2 28
-6 62 -10 78 -5 17 -3 27 4 27 11 0 61 90 61 110 0 5 -8 10 -19 10 -14 0 -17
6 -14 24 3 13 0 27 -6 30 -6 4 -11 20 -11 35 0 42 38 71 104 80 31 4 59 11 63
14 3 4 13 7 21 7 12 0 12 -4 -3 -20z m5251 -35 c-13 -54 -27 -60 -20 -7 8 51
12 64 22 58 5 -3 4 -26 -2 -51z m-6142 17 c12 -6 29 -13 39 -16 24 -8 21 -33
-5 -40 -39 -10 -96 -7 -110 7 -7 7 -25 20 -40 30 -16 10 -28 21 -28 26 0 11
118 5 144 -7z m-524 -94 c0 -70 -2 -79 -15 -68 -11 9 -15 32 -15 80 0 36 3 70
6 73 17 16 24 -11 24 -85z m427 26 c23 -10 44 -24 47 -31 9 -22 -19 -43 -67
-49 -45 -6 -50 -5 -82 26 -46 45 -42 72 8 49 33 -15 46 -5 24 19 -26 29 -21
49 6 25 12 -11 41 -29 64 -39z m-372 -61 c4 -37 3 -63 -2 -63 -5 0 -10 6 -11
13 -12 92 -13 131 -4 122 5 -5 13 -38 17 -72z m115 17 c0 -49 -12 -52 -28 -7
-16 44 -15 47 8 47 17 0 20 -7 20 -40z m5705 -13 c-3 -12 -1 -29 4 -37 8 -12
13 -12 30 4 21 19 21 19 21 -36 0 -63 -18 -105 -51 -122 -12 -6 -32 -29 -45
-51 -13 -25 -30 -41 -44 -43 -22 -4 -22 -1 -17 45 11 85 32 162 50 183 9 11
17 27 17 36 0 24 20 55 31 49 5 -4 7 -16 4 -28z m-5766 -19 c1 -5 -3 -8 -9 -8
-5 0 -10 12 -9 28 0 24 1 25 9 7 5 -11 9 -23 9 -27z m6551 -17 c0 -5 -7 -14
-15 -21 -16 -14 -18 -10 -9 14 6 17 24 22 24 7z m49 -60 c8 -13 5 -28 -9 -56
l-19 -38 -11 27 c-5 15 -14 25 -18 22 -4 -2 -14 0 -22 5 -13 8 -13 11 0 18 8
6 24 17 35 25 26 20 32 20 44 -3z m-6319 -11 c0 -5 -4 -10 -10 -10 -5 0 -10 5
-10 10 0 6 5 10 10 10 6 0 10 -4 10 -10z m5677 -132 c-5 -79 -10 -96 -51 -174
-25 -48 -46 -92 -46 -97 0 -5 -9 -25 -21 -44 -20 -31 -22 -33 -35 -16 -17 23
-17 77 0 126 8 21 12 55 9 75 -3 20 0 48 5 62 5 14 9 27 8 30 0 3 9 19 22 37
12 17 22 35 22 40 0 4 14 23 31 41 26 28 33 31 46 20 13 -10 15 -29 10 -100z
m-6038 23 c19 -12 6 -43 -29 -69 -17 -13 -30 -29 -30 -36 0 -8 -7 -16 -15 -20
-8 -3 -15 -11 -15 -17 0 -17 47 -2 84 26 38 29 120 65 148 65 19 0 47 -25 48
-41 0 -4 -12 -9 -27 -12 -106 -20 -113 -24 -218 -119 -54 -48 -69 -40 -69 40
0 51 5 66 32 103 18 24 32 53 32 66 0 17 6 23 23 23 12 0 28 -4 36 -9z m5909
-13 c2 -9 -5 -19 -16 -22 -10 -4 -29 -24 -41 -46 -12 -22 -27 -40 -32 -40 -11
0 20 62 34 68 4 2 7 14 7 27 0 35 42 46 48 13z m-588 2 c0 -5 -4 -10 -10 -10
-5 0 -10 5 -10 10 0 6 5 10 10 10 6 0 10 -4 10 -10z m-5458 -100 c-17 -16 -29
-40 -46 -94 -11 -33 -19 -8 -12 38 9 57 42 102 62 85 13 -10 12 -14 -4 -29z
m6241 -12 c-3 -29 -9 -69 -13 -88 -23 -92 -29 -113 -39 -123 -6 -6 -11 -17
-11 -25 0 -17 -90 -142 -102 -142 -14 0 -9 47 7 60 9 7 15 29 15 55 0 29 6 47
20 60 11 10 20 28 20 39 0 12 11 41 25 65 14 23 25 51 25 60 0 9 7 26 15 37 8
10 15 27 15 37 0 9 6 17 14 17 10 0 12 -13 9 -52z m177 -43 c0 -8 -2 -15 -4
-15 -2 0 -6 7 -10 15 -3 8 -1 15 4 15 6 0 10 -7 10 -15z m-6032 -27 c9 -9 15
-9 24 0 17 17 68 15 90 -5 34 -31 17 -71 -29 -65 -11 2 -24 -2 -28 -7 -3 -6
-26 -11 -51 -11 -30 0 -46 -5 -50 -15 -4 -8 -16 -15 -29 -15 -12 0 -32 -9 -45
-20 -54 -47 -42 64 14 128 22 25 83 31 104 10z m486 -70 c-2 -106 -1 -103 -19
-88 -12 10 -15 10 -15 -4 0 -9 7 -16 15 -16 8 0 15 -6 15 -14 0 -7 -7 -19 -15
-26 -8 -7 -15 -20 -15 -29 -1 -16 -33 -61 -44 -61 -12 0 -5 66 10 95 9 17 18
48 20 69 3 22 9 47 15 57 5 10 9 27 9 39 0 18 16 60 23 60 2 0 2 -37 1 -82z
m5626 18 c0 -3 -4 -8 -10 -11 -5 -3 -10 -1 -10 4 0 6 5 11 10 11 6 0 10 -2 10
-4z m50 -65 c0 -14 -48 -49 -86 -63 -19 -6 -34 -16 -34 -20 0 -4 -4 -8 -10 -8
-5 0 -10 11 -10 24 0 18 11 29 48 49 48 26 92 34 92 18z m-5830 -91 c0 -11 -3
-20 -8 -20 -4 0 -12 -10 -17 -22 -9 -20 -72 -44 -84 -32 -8 8 23 35 35 30 15
-6 37 18 26 28 -7 8 24 36 40 36 4 0 8 -9 8 -20z m5885 -20 c5 -21 0 -43 -14
-73 -12 -24 -21 -46 -21 -49 0 -16 35 -15 68 2 20 11 42 20 49 20 7 0 29 11
49 25 45 31 64 22 30 -14 -14 -15 -26 -32 -26 -37 0 -14 -117 -127 -148 -143
-19 -10 -22 -18 -18 -37 8 -31 -26 -63 -67 -64 -23 0 -29 5 -34 30 -3 17 -10
33 -14 36 -5 3 -9 20 -9 37 0 18 -6 41 -13 52 -27 41 -13 105 22 105 17 0 23
20 11 34 -6 8 -21 12 -33 9 -22 -4 -22 -4 -2 12 11 9 32 19 48 22 15 3 27 9
27 14 0 5 6 9 13 9 8 0 22 9 32 20 26 28 42 25 50 -10z m-6005 -49 c0 -12 -20
-25 -27 -18 -7 7 6 27 18 27 5 0 9 -4 9 -9z m622 -2 c12 -6 64 -14 116 -18 57
-3 97 -11 99 -17 4 -12 -42 -25 -52 -15 -4 3 -23 6 -43 7 -90 4 -184 25 -190
42 -5 15 42 16 70 1z m4946 4 c-24 -49 -32 -63 -40 -63 -4 0 -8 3 -8 6 0 12
35 64 43 64 5 0 7 -3 5 -7z m-5528 -30 c0 -15 -88 -103 -102 -103 -8 0 -21
-16 -28 -36 -8 -20 -22 -40 -32 -45 -25 -14 -80 -10 -102 6 -29 22 -66 19 -66
-5 0 -17 -3 -18 -26 -10 -41 16 -64 12 -64 -10 0 -24 -13 -26 -30 -5 -16 20
-39 19 -62 -2 -17 -15 -19 -15 -36 0 -10 10 -24 17 -30 17 -12 0 -82 87 -82
101 0 5 20 6 44 3 43 -6 44 -6 56 30 6 20 18 36 25 36 8 0 44 -16 82 -35 37
-19 78 -35 90 -35 12 0 37 13 56 29 25 23 46 31 85 34 28 2 58 10 67 17 11 9
15 9 15 1 0 -42 68 -52 85 -13 5 12 16 20 22 17 7 -2 13 0 13 5 0 6 5 10 10
10 6 0 10 -3 10 -7z m134 -69 c4 -9 4 -19 1 -22 -6 -6 -35 18 -35 29 0 16 28
10 34 -7z m489 -22 c15 -2 27 -9 27 -14 0 -6 -10 -8 -22 -4 -13 3 -33 6 -45 6
-14 0 -23 6 -23 16 0 12 5 14 18 9 9 -4 29 -10 45 -13z m-573 -63 c0 -18 -20
-26 -33 -13 -8 8 15 44 25 38 4 -3 8 -14 8 -25z m504 -49 c8 -10 1 -11 -34 -6
-61 9 -81 30 -21 23 24 -3 49 -11 55 -17z m-604 -9 c0 -11 -31 -24 -39 -16 -3
3 1 10 9 15 19 12 30 12 30 1z m812 -13 c-9 -9 -15 -9 -24 0 -9 9 -7 12 12 12
19 0 21 -3 12 -12z m-289 -22 c15 -3 72 -8 125 -11 101 -7 112 -10 96 -24 -7
-7 -152 2 -204 13 -8 2 -32 6 -53 11 -20 4 -40 12 -43 17 -4 6 4 8 22 4 16 -3
42 -8 57 -10z m-647 -59 c3 -18 10 -36 14 -42 4 -5 10 -26 13 -45 6 -32 6 -34
-8 -16 -8 11 -15 27 -15 36 0 9 -11 27 -25 40 -24 22 -33 59 -18 73 11 12 31
-13 39 -46z m5481 -37 c73 3 75 2 71 -22 -2 -19 -8 -22 -33 -20 -70 7 -133 41
-119 64 5 7 12 5 20 -6 9 -13 25 -17 61 -16z m-5697 -38 c1 -9 15 -26 32 -37
35 -22 72 -85 82 -138 4 -19 20 -52 36 -72 38 -48 38 -65 2 -65 -42 0 -107 52
-142 112 -27 48 -30 61 -30 141 0 56 4 86 10 82 6 -3 10 -14 10 -23z"/>
<path d="M7265 7269 c-8 -12 23 -49 42 -49 16 0 17 14 3 41 -12 21 -35 25 -45
8z"/>
<path d="M4861 6326 c-7 -8 -20 -14 -29 -14 -50 3 -240 -154 -287 -238 -18
-31 -15 -64 5 -64 6 0 25 24 44 53 32 50 124 140 142 140 5 -1 18 6 29 13 11
8 33 14 49 14 16 0 46 5 67 11 36 11 44 9 136 -37 54 -27 114 -60 133 -74 70
-50 72 -51 147 -74 99 -31 133 -21 133 39 0 22 -41 65 -62 65 -5 0 -24 11 -41
24 -18 14 -44 28 -60 31 -15 4 -31 13 -35 20 -4 7 -36 23 -72 35 -66 21 -121
43 -152 60 -28 16 -134 12 -147 -4z"/>
<path d="M6832 6229 c-24 -5 -57 -15 -74 -24 -17 -8 -38 -15 -47 -15 -9 0 -29
-7 -45 -15 -16 -8 -54 -23 -85 -31 -31 -9 -84 -30 -118 -46 -68 -32 -78 -51
-43 -83 25 -22 119 -17 145 8 9 9 25 17 36 17 11 0 27 4 37 9 26 15 153 51
177 51 11 0 26 5 32 11 16 16 132 14 193 -5 75 -22 134 -81 180 -180 28 -61
39 -76 58 -76 19 0 22 5 22 34 0 19 -4 37 -9 40 -5 3 -12 17 -15 32 -13 51
-147 232 -174 233 -7 1 -25 7 -40 15 -15 8 -61 17 -102 21 -41 4 -77 8 -80 9
-3 2 -24 -1 -48 -5z"/>
<path d="M6387 5852 c-10 -10 -17 -23 -17 -29 0 -6 -4 -13 -9 -15 -11 -4 -91
-158 -91 -175 0 -8 -10 -30 -23 -51 -13 -20 -26 -45 -30 -54 -3 -10 -11 -18
-16 -18 -5 0 -13 -14 -16 -32 -4 -17 -18 -51 -31 -76 -28 -53 -30 -83 -8 -117
13 -20 19 -22 35 -12 12 7 19 23 19 42 0 36 16 55 46 55 13 0 36 17 58 43 51
59 53 61 61 88 4 13 18 38 31 56 35 46 32 73 -7 73 -31 0 -32 0 -27 44 4 30
19 65 47 107 32 48 39 65 30 75 -16 19 -33 17 -52 -4z"/>
<path d="M5423 5794 c-3 -8 4 -25 17 -39 29 -31 18 -44 -19 -22 -21 12 -31 13
-39 5 -16 -16 -15 -43 3 -58 8 -7 15 -22 15 -34 0 -12 12 -29 30 -41 16 -11
30 -23 30 -27 0 -5 5 -8 11 -8 6 0 22 -9 36 -20 14 -11 34 -20 45 -20 12 0 24
-13 35 -37 27 -61 42 -74 64 -60 24 15 24 22 -3 77 -30 63 -29 62 -65 110 -18
24 -33 55 -33 70 0 16 -11 37 -30 55 -16 16 -30 34 -30 41 0 25 -57 33 -67 8z"/>
<path d="M5140 5666 c0 -13 16 -41 35 -62 33 -36 35 -40 18 -52 -25 -18 -84
-10 -121 18 -21 16 -39 21 -58 17 -15 -3 -39 -1 -52 4 -17 6 -29 6 -38 -2 -11
-9 -19 -8 -34 6 -17 15 -24 16 -46 6 -25 -11 -26 -11 -19 19 10 43 -7 61 -47
49 -21 -6 -45 -5 -70 3 -43 13 -68 0 -68 -36 0 -12 -18 -38 -40 -59 -45 -42
-50 -61 -20 -77 11 -6 18 -16 14 -21 -4 -6 -13 -4 -25 7 -21 19 -49 12 -49
-13 0 -14 -5 -12 -23 11 -21 26 -25 27 -45 15 -12 -8 -22 -17 -22 -20 0 -19
88 -102 126 -119 24 -11 44 -23 44 -26 0 -3 -16 -12 -36 -20 -52 -22 -43 -49
16 -49 25 0 53 -4 63 -9 10 -5 36 -5 59 -2 28 5 47 2 63 -8 14 -9 27 -11 36
-5 20 12 95 11 163 -2 62 -13 106 -2 106 26 0 12 8 14 43 9 23 -4 44 -7 47 -7
16 -3 50 16 50 27 0 24 -27 39 -49 26 -15 -8 -26 -7 -41 2 -30 19 -24 28 20
28 33 0 40 3 40 20 0 11 -7 20 -15 20 -8 0 -15 9 -15 19 0 34 69 68 84 42 3
-5 -1 -22 -9 -37 -8 -16 -15 -40 -15 -53 0 -20 3 -22 27 -16 16 4 28 7 28 8 0
1 9 12 19 25 18 21 18 23 1 42 -10 11 -14 20 -9 20 17 0 34 -23 34 -46 0 -37
24 -47 49 -20 21 22 24 23 52 9 32 -16 35 -23 17 -42 -19 -18 36 -64 65 -55
30 8 57 41 57 68 0 23 -47 76 -68 76 -7 0 -29 9 -49 20 -21 11 -45 20 -54 20
-9 0 -22 7 -29 15 -7 8 -16 15 -20 15 -5 0 -31 15 -59 33 -38 26 -48 36 -39
45 7 7 18 12 25 12 19 0 16 34 -4 52 -21 17 -86 48 -102 48 -6 0 -11 -11 -11
-24z m-408 -111 c0 -5 -5 -11 -11 -13 -6 -2 -11 4 -11 13 0 9 5 15 11 13 6 -2
11 -8 11 -13z m-62 -46 c0 -5 -4 -9 -10 -9 -5 0 -10 7 -10 16 0 8 5 12 10 9 6
-3 10 -10 10 -16z m223 -111 c4 -28 11 -56 17 -62 34 -34 -17 -35 -70 -1 -47
30 -50 49 -13 87 42 44 59 37 66 -24z"/>
<path d="M6610 5565 c-44 -16 -54 -40 -14 -33 16 3 40 2 54 -2 l25 -8 -27 -1
c-24 -1 -28 -5 -28 -31 0 -33 -4 -36 -68 -43 l-44 -5 23 24 c32 34 13 49 -29
24 -35 -21 -41 -37 -17 -46 12 -5 11 -9 -8 -23 -12 -10 -29 -21 -37 -25 -58
-28 -97 -56 -113 -83 -17 -31 -17 -31 6 -59 21 -24 32 -28 89 -30 79 -4 98 14
42 41 -19 9 -34 21 -34 28 1 16 77 70 90 62 5 -3 13 -24 16 -45 10 -65 38 -81
148 -89 52 -4 102 -13 110 -20 9 -8 26 -11 40 -7 14 3 28 2 31 -4 3 -5 1 -10
-4 -10 -6 0 -11 -6 -11 -12 0 -18 48 -38 90 -38 19 0 51 -5 70 -10 29 -8 39
-7 61 9 22 16 27 17 44 5 10 -8 36 -14 57 -14 38 0 39 0 24 22 -20 28 -20 48
-3 48 18 0 75 29 99 49 23 20 23 41 0 41 -26 0 -45 45 -30 69 18 30 -7 54 -49
48 -28 -5 -33 -3 -33 14 0 14 -7 19 -30 19 -20 0 -30 5 -30 15 0 10 -10 15
-30 15 -24 0 -35 7 -48 29 -13 23 -25 30 -61 34 -26 3 -48 11 -53 21 -13 23
-63 20 -87 -6 -20 -21 -21 -21 -40 -4 -24 22 -41 13 -41 -20 0 -42 -19 -26
-22 19 l-3 42 -45 2 c-25 0 -61 -5 -80 -12z m354 -120 c-6 -16 -34 -21 -34 -7
0 13 11 22 26 22 8 0 11 -6 8 -15z m-154 -117 c-1 -14 -49 -53 -56 -46 -6 7
35 58 47 58 5 0 9 -6 9 -12z m174 -37 c22 -24 8 -56 -28 -65 -25 -6 -60 2 -53
13 2 3 10 21 17 39 16 36 39 41 64 13z"/>
<path d="M4060 5241 c0 -6 5 -13 10 -16 6 -3 10 1 10 9 0 9 -4 16 -10 16 -5 0
-10 -4 -10 -9z"/>
<path d="M6160 4825 c-7 -8 -10 -25 -6 -38 8 -35 -9 -84 -45 -125 -48 -56 -78
-72 -131 -72 -59 0 -64 -20 -13 -52 19 -13 35 -30 35 -39 0 -9 3 -19 7 -23 4
-4 7 -19 8 -34 0 -24 4 -27 33 -27 40 -1 59 19 64 65 2 27 8 36 28 42 93 26
117 35 151 60 64 47 62 106 -8 171 -19 18 -48 44 -64 60 -33 31 -42 33 -59 12z"/>
<path d="M5666 4733 c-4 -5 -13 -8 -19 -8 -17 0 -21 -33 -7 -50 18 -22 35 -18
50 10 12 22 12 28 -1 41 -8 8 -19 11 -23 7z"/>
<path d="M5756 4687 c-11 -8 -17 -22 -14 -37 2 -19 12 -26 53 -36 73 -19 96 7
54 60 -23 29 -63 35 -93 13z"/>
<path d="M5685 4589 c-8 -13 30 -48 53 -49 16 0 28 29 16 40 -17 16 -61 22
-69 9z"/>
<path d="M5640 4232 c-19 -2 -39 -7 -45 -12 -5 -4 -25 -11 -43 -15 -18 -4 -45
-13 -60 -21 -15 -8 -33 -14 -40 -14 -7 0 -38 -17 -69 -37 -30 -21 -68 -45 -84
-54 -16 -9 -34 -21 -41 -27 -7 -5 -26 -13 -43 -16 -16 -4 -39 -13 -49 -21 -19
-14 -16 -18 50 -88 93 -99 124 -138 124 -158 0 -9 6 -22 14 -28 8 -7 17 -24
21 -39 11 -43 67 -104 143 -155 39 -26 75 -47 82 -47 7 0 26 -6 43 -14 63 -28
163 -41 372 -48 11 -1 31 2 45 5 14 3 39 9 55 12 87 18 109 26 162 61 32 21
69 48 84 61 14 14 36 30 49 36 14 7 30 23 36 35 18 37 64 80 134 127 36 24 81
57 100 73 l35 30 -25 27 c-14 14 -41 34 -60 43 -19 9 -53 35 -75 58 -22 23
-59 52 -83 64 -23 12 -46 27 -50 34 -4 6 -26 20 -49 31 -24 11 -43 23 -43 27
0 3 -15 10 -32 13 -18 4 -37 11 -43 15 -5 4 -114 10 -240 12 -195 4 -235 7
-256 22 -15 9 -39 15 -55 14 -16 -2 -45 -4 -64 -6z m113 -80 c38 -3 57 -9 57
-18 0 -8 -10 -11 -27 -9 -16 2 -28 4 -28 6 0 1 -22 3 -49 5 -27 2 -51 5 -53 8
-11 10 10 27 26 20 9 -4 42 -9 74 -12z m-143 -2 c0 -5 -5 -10 -11 -10 -5 0 -7
5 -4 10 3 6 8 10 11 10 2 0 4 -4 4 -10z m303 -150 c75 0 167 -11 247 -30 19
-4 75 -16 124 -26 96 -21 136 -46 136 -87 0 -26 -36 -57 -65 -57 -8 0 -32 -9
-52 -20 -36 -19 -51 -19 -372 -14 -344 5 -367 8 -400 48 -8 9 -20 16 -28 16
-31 0 -113 83 -113 114 0 3 17 14 38 25 28 14 76 21 206 30 93 6 171 13 174
16 3 3 10 1 16 -5 5 -5 46 -10 89 -10z m-118 -344 l82 -1 -5 -40 c-2 -22 -5
-41 -6 -42 -1 -1 -29 1 -64 4 -52 5 -62 9 -62 24 0 11 -5 19 -12 19 -19 0 -88
33 -88 42 0 5 16 6 36 2 20 -4 73 -7 119 -8z"/>
<path d="M5765 3631 c-11 -19 5 -31 39 -28 33 2 47 27 15 27 -9 0 -24 3 -32 6
-8 3 -18 1 -22 -5z"/>
<path d="M4035 4510 c-3 -5 -1 -17 4 -27 6 -10 20 -40 32 -68 28 -67 66 -115
89 -115 29 0 32 15 6 39 -14 13 -34 51 -47 84 -12 34 -29 70 -37 80 -17 19
-38 22 -47 7z"/>
<path d="M4060 4340 c0 -5 5 -10 10 -10 6 0 10 5 10 10 0 6 -4 10 -10 10 -5 0
-10 -4 -10 -10z"/>
<path d="M7586 2833 c-6 -14 -5 -15 5 -6 7 7 10 15 7 18 -3 3 -9 -2 -12 -12z"/>
<path d="M3416 2893 c-6 -14 -5 -15 5 -6 7 7 10 15 7 18 -3 3 -9 -2 -12 -12z"/>
<path d="M9012 2098 c-16 -16 -15 -48 2 -48 12 0 16 7 25 45 4 15 -13 17 -27
3z"/>
<path d="M3727 1723 c-4 -3 -7 -11 -7 -17 0 -6 5 -5 12 2 6 6 9 14 7 17 -3 3
-9 2 -12 -2z"/>
<path d="M4385 8650 c-8 -9 -15 -22 -15 -28 0 -6 -6 -9 -14 -6 -8 3 -15 -3
-18 -14 -3 -11 -18 -26 -34 -33 -17 -8 -30 -24 -32 -37 -5 -31 12 -28 50 11
18 18 50 46 71 62 21 15 42 36 47 45 8 14 5 18 -15 18 -13 0 -31 -8 -40 -18z"/>
<path d="M7806 7913 c-4 -9 -3 -20 1 -24 13 -13 37 7 30 25 -8 21 -23 20 -31
-1z"/>
<path d="M6165 7880 c3 -5 11 -10 16 -10 6 0 7 5 4 10 -3 6 -11 10 -16 10 -6
0 -7 -4 -4 -10z"/>
<path d="M7807 7818 c-5 -35 0 -58 13 -58 9 0 20 36 20 68 0 35 -27 26 -33
-10z"/>
<path d="M7788 7689 c-2 -22 0 -43 5 -46 13 -8 20 3 20 32 0 14 3 28 8 31 16
9 10 24 -10 24 -15 0 -20 -9 -23 -41z"/>
<path d="M8009 7468 c-6 -13 -3 -295 3 -292 15 10 39 66 37 87 -1 12 2 30 6
40 11 25 0 134 -15 152 -11 13 -28 20 -31 13z"/>
<path d="M4724 7430 c-69 -30 -104 -104 -89 -190 7 -43 57 -100 87 -100 17 0
19 5 13 40 -8 48 9 61 48 36 23 -16 25 -15 49 16 34 45 43 129 17 163 -11 13
-19 28 -19 33 0 9 -34 22 -55 21 -5 0 -28 -9 -51 -19z"/>
<path d="M4417 7362 c-19 -20 -27 -103 -11 -109 14 -5 31 32 39 85 7 45 -2 53
-28 24z"/>
<path d="M4580 7285 c0 -32 -1 -35 -11 -61 -14 -38 91 -184 131 -184 9 0 21
-5 27 -11 13 -13 58 -8 58 6 0 5 -24 21 -54 36 -30 15 -59 36 -64 46 -5 10
-18 27 -29 39 -12 14 -21 43 -25 87 -4 47 -10 67 -19 67 -8 0 -14 -11 -14 -25z"/>
<path d="M4875 7270 c-3 -5 -1 -10 4 -10 6 0 11 5 11 10 0 6 -2 10 -4 10 -3 0
-8 -4 -11 -10z"/>
<path d="M8167 5143 c-4 -3 -7 -19 -7 -34 0 -15 -5 -31 -10 -34 -6 -4 -9 -12
-8 -18 1 -7 -10 -36 -25 -65 -34 -67 -36 -94 -7 -67 11 10 20 25 20 34 0 9 7
25 15 35 8 11 15 29 15 41 0 12 4 25 9 31 12 13 24 84 13 84 -5 0 -12 -3 -15
-7z"/>
<path d="M2896 3681 c-4 -5 -2 -12 3 -15 5 -4 12 -2 15 3 4 5 2 12 -3 15 -5 4
-12 2 -15 -3z"/>
<path d="M9705 3070 c3 -5 8 -10 11 -10 2 0 4 5 4 10 0 6 -5 10 -11 10 -5 0
-7 -4 -4 -10z"/>
<path d="M9740 3035 c7 -9 15 -13 17 -11 7 7 -7 26 -19 26 -6 0 -6 -6 2 -15z"/>
<path d="M6546 1388 c-9 -12 -16 -28 -16 -35 0 -7 -7 -10 -15 -7 -9 4 -15 1
-15 -7 0 -15 -42 -79 -52 -79 -21 0 -138 -148 -138 -174 0 -8 -10 -16 -21 -19
-15 -4 -20 -11 -16 -21 4 -10 1 -16 -8 -16 -15 0 -31 -62 -21 -79 5 -8 34 -9
66 -2 12 2 78 97 85 121 4 14 20 36 35 50 15 14 46 54 69 90 22 36 44 70 49
75 17 22 43 87 40 102 -5 26 -25 26 -42 1z"/>
</g>
</svg>
